<svg width="50" height="29" viewBox="0 0 50 29" fill="none" xmlns="http://www.w3.org/2000/svg">
<path d="M24.9891 28.1792C24.4252 28.1792 23.9003 28.0891 23.4143 27.9089C22.9284 27.7288 22.4662 27.4199 22.0279 26.9823L0.994967 5.9494C0.347573 5.30123 0.0160755 4.48652 0.000475638 3.50529C-0.0143442 2.52484 0.317153 1.69532 0.994967 1.01672C1.67356 0.338907 2.49567 0 3.4613 0C4.42694 0 5.24905 0.338907 5.92764 1.01672L24.9891 20.0794L44.0506 1.01672C44.6988 0.369327 45.5135 0.03783 46.4947 0.0222301C47.4752 0.00741022 48.3047 0.338907 48.9833 1.01672C49.6611 1.69532 50 2.51743 50 3.48306C50 4.44869 49.6611 5.27081 48.9833 5.9494L27.9504 26.9823C27.512 27.4199 27.0499 27.7288 26.5639 27.9089C26.078 28.0891 25.5531 28.1792 24.9891 28.1792Z" fill="black"/>
</svg>
