<svg width="40" height="49" viewBox="0 0 40 49" fill="none" xmlns="http://www.w3.org/2000/svg">
<path d="M0 45.0324V3.96761C0 2.84345 0.395062 1.90115 1.18519 1.14069C1.97531 0.380229 2.89712 0 3.95062 0C4.27984 0 4.62551 0.0495951 4.98765 0.148785C5.34979 0.247976 5.69547 0.396761 6.02469 0.595142L38.2222 21.1275C38.8148 21.5243 39.2593 22.0202 39.5556 22.6154C39.8519 23.2105 40 23.8387 40 24.5C40 25.1613 39.8519 25.7895 39.5556 26.3846C39.2593 26.9798 38.8148 27.4757 38.2222 27.8725L6.02469 48.4049C5.69547 48.6032 5.34979 48.752 4.98765 48.8512C4.62551 48.9504 4.27984 49 3.95062 49C2.89712 49 1.97531 48.6198 1.18519 47.8593C0.395062 47.0989 0 46.1565 0 45.0324ZM7.90123 37.7915L28.642 24.5L7.90123 11.2085V37.7915Z" fill="black"/>
</svg>
