<svg width="40" height="37" viewBox="0 0 40 37" fill="none" xmlns="http://www.w3.org/2000/svg">
<path d="M35.5556 18.4167C35.5556 15.3426 34.7407 12.537 33.1111 10C31.4815 7.46296 29.2963 5.56482 26.5556 4.30556C26 4.0463 25.5926 3.64815 25.3333 3.11111C25.0741 2.57407 25.037 2.02778 25.2222 1.47222C25.4444 0.87963 25.8426 0.453704 26.4167 0.194444C26.9907 -0.0648148 27.5741 -0.0648148 28.1667 0.194444C31.7593 1.78704 34.6296 4.22222 36.7778 7.5C38.9259 10.7778 40 14.4167 40 18.4167C40 22.4167 38.9259 26.0556 36.7778 29.3333C34.6296 32.6111 31.7593 35.0463 28.1667 36.6389C27.5741 36.8982 26.9907 36.8982 26.4167 36.6389C25.8426 36.3796 25.4444 35.9537 25.2222 35.3611C25.037 34.8056 25.0741 34.2593 25.3333 33.7222C25.5926 33.1852 26 32.787 26.5556 32.5278C29.2963 31.2685 31.4815 29.3704 33.1111 26.8333C34.7407 24.2963 35.5556 21.4907 35.5556 18.4167ZM8.88889 25.1389H2.22222C1.59259 25.1389 1.06481 24.9259 0.638889 24.5C0.212963 24.0741 0 23.5463 0 22.9167V14.0278C0 13.3981 0.212963 12.8704 0.638889 12.4444C1.06481 12.0185 1.59259 11.8056 2.22222 11.8056H8.88889L16.2222 4.47222C16.9259 3.76852 17.7315 3.61111 18.6389 4C19.5463 4.38889 20 5.08333 20 6.08333V30.8611C20 31.8611 19.5463 32.5556 18.6389 32.9444C17.7315 33.3333 16.9259 33.1759 16.2222 32.4722L8.88889 25.1389ZM30 18.4722C30 20.0278 29.6481 21.5 28.9444 22.8889C28.2407 24.2778 27.3148 25.4167 26.1667 26.3056C25.7963 26.5278 25.4167 26.537 25.0278 26.3333C24.6389 26.1296 24.4444 25.8056 24.4444 25.3611V11.4722C24.4444 11.0278 24.6389 10.7037 25.0278 10.5C25.4167 10.2963 25.7963 10.3056 26.1667 10.5278C27.3148 11.4537 28.2407 12.6204 28.9444 14.0278C29.6481 15.4352 30 16.9167 30 18.4722ZM15.5556 11.4722L10.7778 16.25H4.44444V20.6944H10.7778L15.5556 25.4722V11.4722Z" fill="black"/>
</svg>
