<svg width="50" height="50" viewBox="0 0 50 50" fill="none" xmlns="http://www.w3.org/2000/svg">
<path d="M20 35C20.7083 35 21.3021 34.7604 21.7812 34.2812C22.2604 33.8021 22.5 33.2083 22.5 32.5V17.5C22.5 16.7917 22.2604 16.1979 21.7812 15.7188C21.3021 15.2396 20.7083 15 20 15C19.2917 15 18.6979 15.2396 18.2188 15.7188C17.7396 16.1979 17.5 16.7917 17.5 17.5V32.5C17.5 33.2083 17.7396 33.8021 18.2188 34.2812C18.6979 34.7604 19.2917 35 20 35ZM30 35C30.7083 35 31.3021 34.7604 31.7812 34.2812C32.2604 33.8021 32.5 33.2083 32.5 32.5V17.5C32.5 16.7917 32.2604 16.1979 31.7812 15.7188C31.3021 15.2396 30.7083 15 30 15C29.2917 15 28.6979 15.2396 28.2188 15.7188C27.7396 16.1979 27.5 16.7917 27.5 17.5V32.5C27.5 33.2083 27.7396 33.8021 28.2188 34.2812C28.6979 34.7604 29.2917 35 30 35ZM25 50C21.5417 50 18.2917 49.3438 15.25 48.0312C12.2083 46.7188 9.5625 44.9375 7.3125 42.6875C5.0625 40.4375 3.28125 37.7917 1.96875 34.75C0.65625 31.7083 0 28.4583 0 25C0 21.5417 0.65625 18.2917 1.96875 15.25C3.28125 12.2083 5.0625 9.5625 7.3125 7.3125C9.5625 5.0625 12.2083 3.28125 15.25 1.96875C18.2917 0.65625 21.5417 0 25 0C28.4583 0 31.7083 0.65625 34.75 1.96875C37.7917 3.28125 40.4375 5.0625 42.6875 7.3125C44.9375 9.5625 46.7188 12.2083 48.0312 15.25C49.3438 18.2917 50 21.5417 50 25C50 28.4583 49.3438 31.7083 48.0312 34.75C46.7188 37.7917 44.9375 40.4375 42.6875 42.6875C40.4375 44.9375 37.7917 46.7188 34.75 48.0312C31.7083 49.3438 28.4583 50 25 50ZM25 45C30.5833 45 35.3125 43.0625 39.1875 39.1875C43.0625 35.3125 45 30.5833 45 25C45 19.4167 43.0625 14.6875 39.1875 10.8125C35.3125 6.9375 30.5833 5 25 5C19.4167 5 14.6875 6.9375 10.8125 10.8125C6.9375 14.6875 5 19.4167 5 25C5 30.5833 6.9375 35.3125 10.8125 39.1875C14.6875 43.0625 19.4167 45 25 45Z" fill="black"/>
</svg>
